<mxfile host="app.diagrams.net" agent="Mozilla/5.0 (Windows NT 10.0; Win64; x64) AppleWebKit/537.36 (KHTML, like Gecko) Chrome/132.0.0.0 Safari/537.36" version="26.0.5">
  <diagram name="Página-1" id="nhHIkdOuEzHvNbLaXMdJ">
    <mxGraphModel dx="2062" dy="655" grid="1" gridSize="10" guides="1" tooltips="1" connect="1" arrows="1" fold="1" page="1" pageScale="1" pageWidth="827" pageHeight="1169" math="0" shadow="0">
      <root>
        <mxCell id="0" />
        <mxCell id="1" parent="0" />
        <mxCell id="igvT3jt8Du0UEzzhgrwr-34" style="edgeStyle=orthogonalEdgeStyle;rounded=0;orthogonalLoop=1;jettySize=auto;html=1;entryX=0.5;entryY=0;entryDx=0;entryDy=0;strokeWidth=3;" edge="1" parent="1" source="2" target="3">
          <mxGeometry relative="1" as="geometry" />
        </mxCell>
        <mxCell id="2" value="Tecnologia de Turbinas Eólicas" style="rectangle;whiteSpace=wrap;html=1;strokeWidth=2;shadow=1;glass=0;rounded=1;fontStyle=0;fontSize=14;labelBackgroundColor=none;gradientColor=#CCE5FF;fillColor=default;" vertex="1" parent="1">
          <mxGeometry x="135" y="41" width="180" height="60" as="geometry" />
        </mxCell>
        <mxCell id="igvT3jt8Du0UEzzhgrwr-37" style="edgeStyle=orthogonalEdgeStyle;rounded=0;orthogonalLoop=1;jettySize=auto;html=1;entryX=0.5;entryY=0;entryDx=0;entryDy=0;strokeWidth=3;" edge="1" parent="1" source="3" target="6">
          <mxGeometry relative="1" as="geometry">
            <Array as="points">
              <mxPoint x="135" y="170" />
            </Array>
          </mxGeometry>
        </mxCell>
        <mxCell id="igvT3jt8Du0UEzzhgrwr-38" style="edgeStyle=orthogonalEdgeStyle;rounded=0;orthogonalLoop=1;jettySize=auto;html=1;entryX=0.5;entryY=0;entryDx=0;entryDy=0;strokeWidth=3;" edge="1" parent="1" source="3" target="5">
          <mxGeometry relative="1" as="geometry">
            <Array as="points">
              <mxPoint x="-85" y="170" />
            </Array>
          </mxGeometry>
        </mxCell>
        <mxCell id="3" value="Velocidade Fixa" style="rectangle;whiteSpace=wrap;html=1;strokeWidth=2;rounded=1;shadow=1;fontSize=14;gradientColor=#CCE5FF;" vertex="1" parent="1">
          <mxGeometry x="-50" y="140" width="150" height="60" as="geometry" />
        </mxCell>
        <mxCell id="5" value="Gerador de Indução Stall" style="rectangle;whiteSpace=wrap;html=1;strokeWidth=2;rounded=1;shadow=1;fontSize=14;gradientColor=#CCE5FF;" vertex="1" parent="1">
          <mxGeometry x="-160" y="240" width="150" height="60" as="geometry" />
        </mxCell>
        <mxCell id="6" value="Gerador de Indução Stall Ativo" style="rectangle;whiteSpace=wrap;html=1;strokeWidth=2;rounded=1;shadow=1;fontSize=14;gradientColor=#CCE5FF;" vertex="1" parent="1">
          <mxGeometry x="60" y="240" width="150" height="60" as="geometry" />
        </mxCell>
        <mxCell id="igvT3jt8Du0UEzzhgrwr-39" style="edgeStyle=orthogonalEdgeStyle;rounded=0;orthogonalLoop=1;jettySize=auto;html=1;entryX=0.5;entryY=0;entryDx=0;entryDy=0;strokeWidth=3;" edge="1" parent="1" source="9" target="11">
          <mxGeometry relative="1" as="geometry">
            <Array as="points">
              <mxPoint x="320" y="170" />
            </Array>
          </mxGeometry>
        </mxCell>
        <mxCell id="igvT3jt8Du0UEzzhgrwr-40" style="edgeStyle=orthogonalEdgeStyle;rounded=0;orthogonalLoop=1;jettySize=auto;html=1;strokeWidth=3;" edge="1" parent="1" source="9" target="12">
          <mxGeometry relative="1" as="geometry">
            <Array as="points">
              <mxPoint x="530" y="170" />
            </Array>
          </mxGeometry>
        </mxCell>
        <mxCell id="9" value="Velocidade Variável" style="rectangle;whiteSpace=wrap;html=1;strokeWidth=2;rounded=1;shadow=1;fontSize=14;gradientColor=#CCE5FF;" vertex="1" parent="1">
          <mxGeometry x="350" y="140" width="150" height="60" as="geometry" />
        </mxCell>
        <mxCell id="igvT3jt8Du0UEzzhgrwr-41" style="edgeStyle=orthogonalEdgeStyle;rounded=0;orthogonalLoop=1;jettySize=auto;html=1;entryX=1;entryY=0.5;entryDx=0;entryDy=0;strokeWidth=3;" edge="1" parent="1" source="11" target="15">
          <mxGeometry relative="1" as="geometry">
            <Array as="points">
              <mxPoint x="230" y="270" />
              <mxPoint x="230" y="320" />
              <mxPoint x="160" y="320" />
              <mxPoint x="160" y="370" />
            </Array>
          </mxGeometry>
        </mxCell>
        <mxCell id="11" value="Acionamento Indireto (Com Engrenagem)" style="rectangle;whiteSpace=wrap;html=1;strokeWidth=2;rounded=1;shadow=1;fontSize=14;gradientColor=#CCE5FF;" vertex="1" parent="1">
          <mxGeometry x="245" y="240" width="150" height="60" as="geometry" />
        </mxCell>
        <mxCell id="12" value="Acionamento Direto (Sem Engrenagem)" style="rectangle;whiteSpace=wrap;html=1;strokeWidth=2;rounded=1;shadow=1;fontSize=14;gradientColor=#CCE5FF;" vertex="1" parent="1">
          <mxGeometry x="455" y="240" width="150" height="60" as="geometry" />
        </mxCell>
        <mxCell id="igvT3jt8Du0UEzzhgrwr-45" style="edgeStyle=orthogonalEdgeStyle;rounded=0;orthogonalLoop=1;jettySize=auto;html=1;exitX=0;exitY=0.75;exitDx=0;exitDy=0;entryX=1;entryY=0.5;entryDx=0;entryDy=0;strokeWidth=3;" edge="1" parent="1" source="15" target="20">
          <mxGeometry relative="1" as="geometry">
            <Array as="points">
              <mxPoint x="-100" y="385" />
              <mxPoint x="-100" y="405" />
            </Array>
          </mxGeometry>
        </mxCell>
        <mxCell id="igvT3jt8Du0UEzzhgrwr-46" style="edgeStyle=orthogonalEdgeStyle;rounded=0;orthogonalLoop=1;jettySize=auto;html=1;exitX=0;exitY=0.25;exitDx=0;exitDy=0;entryX=1;entryY=0.5;entryDx=0;entryDy=0;strokeWidth=3;" edge="1" parent="1" source="15" target="21">
          <mxGeometry relative="1" as="geometry">
            <Array as="points">
              <mxPoint x="-100" y="355" />
              <mxPoint x="-100" y="335" />
            </Array>
          </mxGeometry>
        </mxCell>
        <mxCell id="igvT3jt8Du0UEzzhgrwr-47" style="edgeStyle=orthogonalEdgeStyle;rounded=0;orthogonalLoop=1;jettySize=auto;html=1;exitX=0.5;exitY=1;exitDx=0;exitDy=0;entryX=0.5;entryY=0;entryDx=0;entryDy=0;strokeWidth=3;" edge="1" parent="1" source="15" target="19">
          <mxGeometry relative="1" as="geometry" />
        </mxCell>
        <mxCell id="15" value="Conversores de Capacidade Completa" style="rectangle;whiteSpace=wrap;html=1;strokeWidth=2;rounded=1;shadow=1;fontSize=14;gradientColor=#CCE5FF;" vertex="1" parent="1">
          <mxGeometry x="-90" y="340" width="200" height="60" as="geometry" />
        </mxCell>
        <mxCell id="igvT3jt8Du0UEzzhgrwr-42" style="edgeStyle=orthogonalEdgeStyle;rounded=0;orthogonalLoop=1;jettySize=auto;html=1;exitX=0.25;exitY=1;exitDx=0;exitDy=0;entryX=0.5;entryY=0;entryDx=0;entryDy=0;strokeWidth=3;" edge="1" parent="1" source="16" target="25">
          <mxGeometry relative="1" as="geometry" />
        </mxCell>
        <mxCell id="igvT3jt8Du0UEzzhgrwr-43" style="edgeStyle=orthogonalEdgeStyle;rounded=0;orthogonalLoop=1;jettySize=auto;html=1;exitX=0.75;exitY=1;exitDx=0;exitDy=0;strokeWidth=3;" edge="1" parent="1" source="16" target="26">
          <mxGeometry relative="1" as="geometry" />
        </mxCell>
        <mxCell id="16" value="Conversores de Capacidade Parcial" style="rectangle;whiteSpace=wrap;html=1;strokeWidth=2;rounded=1;shadow=1;fontSize=14;gradientColor=#CCE5FF;" vertex="1" parent="1">
          <mxGeometry x="220" y="360" width="200" height="60" as="geometry" />
        </mxCell>
        <mxCell id="18" style="strokeWidth=3;" edge="1" parent="1" source="11" target="16">
          <mxGeometry relative="1" as="geometry" />
        </mxCell>
        <mxCell id="19" value="Gerador Síncrono de Rotor Bobinado" style="rectangle;whiteSpace=wrap;html=1;strokeWidth=2;rounded=1;shadow=1;gradientColor=#CCE5FF;fontSize=14;" vertex="1" parent="1">
          <mxGeometry x="-170" y="450" width="220" height="60" as="geometry" />
        </mxCell>
        <mxCell id="20" value="Gerador Síncrono de Imã Permanente" style="rectangle;whiteSpace=wrap;html=1;strokeWidth=2;rounded=1;shadow=1;fontSize=14;gradientColor=#CCE5FF;" vertex="1" parent="1">
          <mxGeometry x="-340" y="375" width="220" height="60" as="geometry" />
        </mxCell>
        <mxCell id="21" value="Gerador de Indução Gaiola de Esquilo" style="rectangle;whiteSpace=wrap;html=1;strokeWidth=2;rounded=1;shadow=1;fontSize=14;gradientColor=#CCE5FF;" vertex="1" parent="1">
          <mxGeometry x="-340" y="305" width="220" height="60" as="geometry" />
        </mxCell>
        <mxCell id="25" value="Gerador de Indução Duplamente Alimentado" style="rectangle;whiteSpace=wrap;html=1;strokeWidth=2;rounded=1;shadow=1;fontSize=14;fontStyle=0;gradientColor=#CCE5FF;" vertex="1" parent="1">
          <mxGeometry x="115" y="465" width="200" height="60" as="geometry" />
        </mxCell>
        <mxCell id="26" value="Gerador Síncrono de Rotor Bobinado" style="rectangle;whiteSpace=wrap;html=1;strokeWidth=2;rounded=1;shadow=1;gradientColor=#CCE5FF;fontSize=14;" vertex="1" parent="1">
          <mxGeometry x="327.5" y="465" width="200" height="60" as="geometry" />
        </mxCell>
        <mxCell id="29" value="Gerador Síncrono de Rotor Bobinado" style="rectangle;whiteSpace=wrap;html=1;strokeWidth=2;rounded=1;shadow=1;fontSize=14;gradientColor=#CCE5FF;" vertex="1" parent="1">
          <mxGeometry x="430" y="340" width="200" height="60" as="geometry" />
        </mxCell>
        <mxCell id="30" value="Gerador Síncrono de Imã Permanente" style="rectangle;whiteSpace=wrap;html=1;strokeWidth=2;rounded=1;shadow=1;fontSize=14;gradientColor=#CCE5FF;" vertex="1" parent="1">
          <mxGeometry x="660" y="240" width="200" height="60" as="geometry" />
        </mxCell>
        <mxCell id="31" style="strokeWidth=3;" edge="1" parent="1" source="12" target="29">
          <mxGeometry relative="1" as="geometry" />
        </mxCell>
        <mxCell id="32" style="strokeWidth=3;" edge="1" parent="1" source="12" target="30">
          <mxGeometry relative="1" as="geometry" />
        </mxCell>
        <mxCell id="igvT3jt8Du0UEzzhgrwr-35" style="edgeStyle=orthogonalEdgeStyle;rounded=0;orthogonalLoop=1;jettySize=auto;html=1;entryX=0.545;entryY=-0.018;entryDx=0;entryDy=0;entryPerimeter=0;strokeWidth=3;" edge="1" parent="1" source="2" target="9">
          <mxGeometry relative="1" as="geometry" />
        </mxCell>
      </root>
    </mxGraphModel>
  </diagram>
</mxfile>
